# xmcd
#
# Track frame offsets: 
#        293
#        12743
#        27778
#        47496
#        63379
#        78481
#        93968
#        107570
#        124405
#        137449
#        152888
#        167745
#        180083
#        194383
#        207481
#
# Disc length: 2908 seconds
#
# Revision: 2
# Processed by: cddbd v1.5.2PL0 Copyright (c) Steve Scherf et al.
# Submitted via: ExactAudioCopy v1.1
#
DISCID=c40b590f
DTITLE=Rotfront - Visafree
DYEAR=2011
DGENRE=Blues
TTITLE0=VisaFree
TTITLE1=Eyn Tsvey
TTITLE2=Gay, Gypsy and Jew
TTITLE3=Revolution Disco
TTITLE4=Cosmos
TTITLE5=Vodka and Garlic
TTITLE6=Money Money Money
TTITLE7=Real Berlin Wedding
TTITLE8=Csóváz
TTITLE9=Live is Life
TTITLE10=No Sleep till Berlin
TTITLE11=Village Superstar
TTITLE12=James Bondski
TTITLE13=Sigaretta
TTITLE14=Backsteinpulver
EXTD=YEAR: 2011
EXTT0=
EXTT1=
EXTT2=
EXTT3=
EXTT4=
EXTT5=
EXTT6=
EXTT7=
EXTT8=
EXTT9=
EXTT10=
EXTT11=
EXTT12=
EXTT13=
EXTT14=
PLAYORDER=
